<svg xmlns="http://www.w3.org/2000/svg" width="760" height="360" viewBox="0 0 760 360" role="img" aria-label="GitHub public repository language donut chart">
  <rect x="1" y="1" width="758" height="358" rx="18" fill="#0d1117" stroke="#30363d" stroke-width="2"/>
  <circle cx="58" cy="58" r="11" fill="#3fb950"/>
  <text x="82" y="67" font-family="Segoe UI, Inter, Arial, sans-serif" font-size="28" font-weight="700" fill="#f0f6fc">Repository Languages</text>
  <text x="58" y="108" font-family="Segoe UI, Inter, Arial, sans-serif" font-size="17" fill="#8b949e">Primary-language donut across 19 public repositories</text>
  <line x1="58" y1="138" x2="702" y2="138" stroke="#30363d" stroke-width="2"/>

  <g transform="rotate(-90 230 238)">
    <circle cx="230" cy="238" r="70" fill="none" stroke="#112b46" stroke-width="40"/>
    <circle cx="230" cy="238" r="70" fill="none" stroke="#f0883e" stroke-width="40" stroke-linecap="butt" stroke-dasharray="162 278" stroke-dashoffset="0"/>
    <circle cx="230" cy="238" r="70" fill="none" stroke="#1f6feb" stroke-width="40" stroke-linecap="butt" stroke-dasharray="116 324" stroke-dashoffset="-162"/>
    <circle cx="230" cy="238" r="70" fill="none" stroke="#388bfd" stroke-width="40" stroke-linecap="butt" stroke-dasharray="93 347" stroke-dashoffset="-278"/>
    <circle cx="230" cy="238" r="70" fill="none" stroke="#3fb950" stroke-width="40" stroke-linecap="butt" stroke-dasharray="69 371" stroke-dashoffset="-371"/>
  </g>
  <circle cx="230" cy="238" r="43" fill="#0d1117"/>
  <text x="230" y="232" text-anchor="middle" font-family="Segoe UI, Inter, Arial, sans-serif" font-size="32" font-weight="750" fill="#f0f6fc">19</text>
  <text x="230" y="258" text-anchor="middle" font-family="Segoe UI, Inter, Arial, sans-serif" font-size="15" fill="#8b949e">repos</text>

  <g font-family="Segoe UI, Inter, Arial, sans-serif">
    <circle cx="402" cy="174" r="8" fill="#f0883e"/>
    <text x="422" y="180" font-size="17" font-weight="650" fill="#c9d1d9">Jupyter / Web / Systems</text>
    <text x="660" y="180" text-anchor="end" font-size="16" fill="#8b949e">7 · 36.8%</text>

    <circle cx="402" cy="214" r="8" fill="#1f6feb"/>
    <text x="422" y="220" font-size="17" font-weight="650" fill="#c9d1d9">MATLAB</text>
    <text x="660" y="220" text-anchor="end" font-size="16" fill="#8b949e">5 · 26.3%</text>

    <circle cx="402" cy="254" r="8" fill="#388bfd"/>
    <text x="422" y="260" font-size="17" font-weight="650" fill="#c9d1d9">Mixed / Docs</text>
    <text x="660" y="260" text-anchor="end" font-size="16" fill="#8b949e">4 · 21.1%</text>

    <circle cx="402" cy="294" r="8" fill="#3fb950"/>
    <text x="422" y="300" font-size="17" font-weight="650" fill="#c9d1d9">Python</text>
    <text x="660" y="300" text-anchor="end" font-size="16" fill="#8b949e">3 · 15.8%</text>
  </g>
</svg>
