<svg xmlns="http://www.w3.org/2000/svg" width="760" height="278" viewBox="0 0 760 278" role="img" aria-label="GitHub statistics and repository languages in two columns"><rect x=".5" y=".5" width="759" height="277" rx="8" fill="#0d1117" stroke="#30363d"/><text x="20" y="37" fill="#e6edf3" font-family="Segoe UI,Arial,sans-serif" font-size="25" font-weight="600">21</text><text x="20" y="57" fill="#9da7b3" font-family="Segoe UI,Arial,sans-serif" font-size="11" font-weight="400">Public repos</text><text x="262" y="37" fill="#e6edf3" font-family="Segoe UI,Arial,sans-serif" font-size="25" font-weight="600">5</text><text x="262" y="57" fill="#9da7b3" font-family="Segoe UI,Arial,sans-serif" font-size="11" font-weight="400">Followers</text><text x="504" y="37" fill="#e6edf3" font-family="Segoe UI,Arial,sans-serif" font-size="25" font-weight="600">1</text><text x="504" y="57" fill="#9da7b3" font-family="Segoe UI,Arial,sans-serif" font-size="11" font-weight="400">Repo stars</text><path d="M20 74H740" stroke="#30363d"/><text x="20" y="98" fill="#e6edf3" font-family="Segoe UI,Arial,sans-serif" font-size="13" font-weight="600">Repository languages</text><circle cx="23" cy="118" r="3" fill="#d18b47"/><text x="32" y="122" fill="#e6edf3" font-family="Segoe UI,Arial,sans-serif" font-size="12" font-weight="400">MATLAB</text><text x="335" y="122" fill="#9da7b3" font-family="Segoe UI,Arial,sans-serif" font-size="11" font-weight="400">5</text><rect x="180" y="114" width="140" height="4" rx="2" fill="#30363d"/><rect x="180" y="114" width="140.0" height="4" rx="2" fill="#d18b47"/><circle cx="23" cy="145" r="3" fill="#c87846"/><text x="32" y="149" fill="#e6edf3" font-family="Segoe UI,Arial,sans-serif" font-size="12" font-weight="400">Jupyter Notebook</text><text x="335" y="149" fill="#9da7b3" font-family="Segoe UI,Arial,sans-serif" font-size="11" font-weight="400">3</text><rect x="180" y="141" width="140" height="4" rx="2" fill="#30363d"/><rect x="180" y="141" width="84.0" height="4" rx="2" fill="#c87846"/><circle cx="23" cy="172" r="3" fill="#5283ac"/><text x="32" y="176" fill="#e6edf3" font-family="Segoe UI,Arial,sans-serif" font-size="12" font-weight="400">Python</text><text x="335" y="176" fill="#9da7b3" font-family="Segoe UI,Arial,sans-serif" font-size="11" font-weight="400">3</text><rect x="180" y="168" width="140" height="4" rx="2" fill="#30363d"/><rect x="180" y="168" width="84.0" height="4" rx="2" fill="#5283ac"/><circle cx="23" cy="199" r="3" fill="#8581ae"/><text x="32" y="203" fill="#e6edf3" font-family="Segoe UI,Arial,sans-serif" font-size="12" font-weight="400">C</text><text x="335" y="203" fill="#9da7b3" font-family="Segoe UI,Arial,sans-serif" font-size="11" font-weight="400">1</text><rect x="180" y="195" width="140" height="4" rx="2" fill="#30363d"/><rect x="180" y="195" width="28.0" height="4" rx="2" fill="#8581ae"/><circle cx="23" cy="226" r="3" fill="#ba6a61"/><text x="32" y="230" fill="#e6edf3" font-family="Segoe UI,Arial,sans-serif" font-size="12" font-weight="400">HTML</text><text x="335" y="230" fill="#9da7b3" font-family="Segoe UI,Arial,sans-serif" font-size="11" font-weight="400">1</text><rect x="180" y="222" width="140" height="4" rx="2" fill="#30363d"/><rect x="180" y="222" width="28.0" height="4" rx="2" fill="#ba6a61"/><circle cx="388" cy="118" r="3" fill="#aa8157"/><text x="397" y="122" fill="#e6edf3" font-family="Segoe UI,Arial,sans-serif" font-size="12" font-weight="400">Java</text><text x="700" y="122" fill="#9da7b3" font-family="Segoe UI,Arial,sans-serif" font-size="11" font-weight="400">1</text><rect x="545" y="114" width="140" height="4" rx="2" fill="#30363d"/><rect x="545" y="114" width="28.0" height="4" rx="2" fill="#aa8157"/><circle cx="388" cy="145" r="3" fill="#b8a13e"/><text x="397" y="149" fill="#e6edf3" font-family="Segoe UI,Arial,sans-serif" font-size="12" font-weight="400">JavaScript</text><text x="700" y="149" fill="#9da7b3" font-family="Segoe UI,Arial,sans-serif" font-size="11" font-weight="400">1</text><rect x="545" y="141" width="140" height="4" rx="2" fill="#30363d"/><rect x="545" y="141" width="28.0" height="4" rx="2" fill="#b8a13e"/><circle cx="388" cy="172" r="3" fill="#4f87ab"/><text x="397" y="176" fill="#e6edf3" font-family="Segoe UI,Arial,sans-serif" font-size="12" font-weight="400">TypeScript</text><text x="700" y="176" fill="#9da7b3" font-family="Segoe UI,Arial,sans-serif" font-size="11" font-weight="400">1</text><rect x="545" y="168" width="140" height="4" rx="2" fill="#30363d"/><rect x="545" y="168" width="28.0" height="4" rx="2" fill="#4f87ab"/><circle cx="388" cy="199" r="3" fill="#9aa2ac"/><text x="397" y="203" fill="#e6edf3" font-family="Segoe UI,Arial,sans-serif" font-size="12" font-weight="400">Unclassified</text><text x="700" y="203" fill="#9da7b3" font-family="Segoe UI,Arial,sans-serif" font-size="11" font-weight="400">5</text><rect x="545" y="195" width="140" height="4" rx="2" fill="#30363d"/><rect x="545" y="195" width="140.0" height="4" rx="2" fill="#9aa2ac"/><text x="20" y="255" fill="#9da7b3" font-family="Segoe UI,Arial,sans-serif" font-size="10" font-weight="400">Primary language per public repo · Includes forks</text><text x="20" y="269" fill="#9da7b3" font-family="Segoe UI,Arial,sans-serif" font-size="10" font-weight="400">GitHub API snapshot · 2026-09-10</text></svg>